{
    "asset": {
        "version": "2.0",
        "generator": "Three.js GLTFExporter"
    },
    "scenes": [
        {
            "nodes": [0],
            "name": "Trophy"
        }
    ],
    "nodes": [
        {
            "children": [1, 2, 3],
            "name": "Trophy",
            "translation": [0, 0, 0]
        },
        {
            "mesh": 0,
            "name": "Base",
            "translation": [0, 0, 0],
            "scale": [1.5, 0.2, 1.5]
        },
        {
            "mesh": 1,
            "name": "Stem",
            "translation": [0, 1.1, 0],
            "scale": [0.2, 2, 0.2]
        },
        {
            "mesh": 2,
            "name": "Bowl",
            "translation": [0, 2.2, 0],
            "scale": [1, 1, 1]
        }
    ],
    "meshes": [
        {
            "primitives": [
                {
                    "attributes": {
                        "POSITION": 0,
                        "NORMAL": 1
                    },
                    "indices": 2,
                    "material": 0
                }
            ]
        },
        {
            "primitives": [
                {
                    "attributes": {
                        "POSITION": 3,
                        "NORMAL": 4
                    },
                    "indices": 5,
                    "material": 0
                }
            ]
        },
        {
            "primitives": [
                {
                    "attributes": {
                        "POSITION": 6,
                        "NORMAL": 7
                    },
                    "indices": 8,
                    "material": 0
                }
            ]
        }
    ],
    "materials": [
        {
            "pbrMetallicRoughness": {
                "baseColorFactor": [1.0, 0.843, 0.0, 1.0],
                "metallicFactor": 1.0,
                "roughnessFactor": 0.3
            },
            "name": "Gold"
        }
    ],
    "accessors": [
        {
            "bufferView": 0,
            "componentType": 5126,
            "count": 24,
            "max": [1, 1, 1],
            "min": [-1, -1, -1],
            "type": "VEC3"
        },
        {
            "bufferView": 1,
            "componentType": 5126,
            "count": 24,
            "type": "VEC3"
        },
        {
            "bufferView": 2,
            "componentType": 5123,
            "count": 36,
            "type": "SCALAR"
        },
        {
            "bufferView": 3,
            "componentType": 5126,
            "count": 24,
            "max": [1, 1, 1],
            "min": [-1, -1, -1],
            "type": "VEC3"
        },
        {
            "bufferView": 4,
            "componentType": 5126,
            "count": 24,
            "type": "VEC3"
        },
        {
            "bufferView": 5,
            "componentType": 5123,
            "count": 36,
            "type": "SCALAR"
        },
        {
            "bufferView": 6,
            "componentType": 5126,
            "count": 240,
            "max": [1, 1, 1],
            "min": [-1, -1, -1],
            "type": "VEC3"
        },
        {
            "bufferView": 7,
            "componentType": 5126,
            "count": 240,
            "type": "VEC3"
        },
        {
            "bufferView": 8,
            "componentType": 5123,
            "count": 360,
            "type": "SCALAR"
        }
    ],
    "bufferViews": [
        {
            "buffer": 0,
            "byteLength": 288,
            "byteOffset": 0
        },
        {
            "buffer": 0,
            "byteLength": 288,
            "byteOffset": 288
        },
        {
            "buffer": 0,
            "byteLength": 72,
            "byteOffset": 576
        },
        {
            "buffer": 0,
            "byteLength": 288,
            "byteOffset": 648
        },
        {
            "buffer": 0,
            "byteLength": 288,
            "byteOffset": 936
        },
        {
            "buffer": 0,
            "byteLength": 72,
            "byteOffset": 1224
        },
        {
            "buffer": 0,
            "byteLength": 2880,
            "byteOffset": 1296
        },
        {
            "buffer": 0,
            "byteLength": 2880,
            "byteOffset": 4176
        },
        {
            "buffer": 0,
            "byteLength": 720,
            "byteOffset": 7056
        }
    ],
    "buffers": [
        {
            "byteLength": 7776,
            "uri": "data:application/octet-stream;base64,"
        }
    ]
} 