{
    "asset": {
        "version": "2.0",
        "generator": "Manual"
    },
    "scene": 0,
    "scenes": [
        {
            "nodes": [0]
        }
    ],
    "nodes": [
        {
            "children": [1, 2, 3],
            "matrix": [1, 0, 0, 0, 0, 1, 0, 0, 0, 0, 1, 0, 0, 0, 0, 1]
        },
        {
            "mesh": 0,
            "name": "Base",
            "translation": [0, -1.5, 0],
            "scale": [1.5, 0.2, 1.5]
        },
        {
            "mesh": 1,
            "name": "Stem",
            "translation": [0, 0, 0],
            "scale": [0.2, 2, 0.2]
        },
        {
            "mesh": 2,
            "name": "Bowl",
            "translation": [0, 1.5, 0],
            "scale": [1, 1, 1]
        }
    ],
    "meshes": [
        {
            "primitives": [
                {
                    "attributes": {
                        "POSITION": 0,
                        "NORMAL": 1
                    },
                    "indices": 2,
                    "material": 0,
                    "mode": 4
                }
            ]
        },
        {
            "primitives": [
                {
                    "attributes": {
                        "POSITION": 3,
                        "NORMAL": 4
                    },
                    "indices": 5,
                    "material": 0,
                    "mode": 4
                }
            ]
        },
        {
            "primitives": [
                {
                    "attributes": {
                        "POSITION": 6,
                        "NORMAL": 7
                    },
                    "indices": 8,
                    "material": 0,
                    "mode": 4
                }
            ]
        }
    ],
    "materials": [
        {
            "name": "Gold",
            "pbrMetallicRoughness": {
                "baseColorFactor": [1.0, 0.843, 0.0, 1.0],
                "metallicFactor": 1.0,
                "roughnessFactor": 0.3
            },
            "alphaMode": "OPAQUE",
            "doubleSided": false
        }
    ],
    "accessors": [
        {
            "bufferView": 0,
            "componentType": 5126,
            "count": 24,
            "type": "VEC3",
            "max": [1.0, 1.0, 1.0],
            "min": [-1.0, -1.0, -1.0],
            "normalized": false
        },
        {
            "bufferView": 1,
            "componentType": 5126,
            "count": 24,
            "type": "VEC3",
            "normalized": false
        },
        {
            "bufferView": 2,
            "componentType": 5123,
            "count": 36,
            "type": "SCALAR",
            "normalized": false
        },
        {
            "bufferView": 3,
            "componentType": 5126,
            "count": 24,
            "type": "VEC3",
            "max": [1.0, 1.0, 1.0],
            "min": [-1.0, -1.0, -1.0],
            "normalized": false
        },
        {
            "bufferView": 4,
            "componentType": 5126,
            "count": 24,
            "type": "VEC3",
            "normalized": false
        },
        {
            "bufferView": 5,
            "componentType": 5123,
            "count": 36,
            "type": "SCALAR",
            "normalized": false
        },
        {
            "bufferView": 6,
            "componentType": 5126,
            "count": 24,
            "type": "VEC3",
            "max": [1.0, 1.0, 1.0],
            "min": [-1.0, -1.0, -1.0],
            "normalized": false
        },
        {
            "bufferView": 7,
            "componentType": 5126,
            "count": 24,
            "type": "VEC3",
            "normalized": false
        },
        {
            "bufferView": 8,
            "componentType": 5123,
            "count": 36,
            "type": "SCALAR",
            "normalized": false
        }
    ],
    "bufferViews": [
        {
            "buffer": 0,
            "byteLength": 288,
            "byteOffset": 0,
            "target": 34962,
            "byteStride": 12
        },
        {
            "buffer": 0,
            "byteLength": 288,
            "byteOffset": 288,
            "target": 34962,
            "byteStride": 12
        },
        {
            "buffer": 0,
            "byteLength": 72,
            "byteOffset": 576,
            "target": 34963
        },
        {
            "buffer": 0,
            "byteLength": 288,
            "byteOffset": 648,
            "target": 34962,
            "byteStride": 12
        },
        {
            "buffer": 0,
            "byteLength": 288,
            "byteOffset": 936,
            "target": 34962,
            "byteStride": 12
        },
        {
            "buffer": 0,
            "byteLength": 72,
            "byteOffset": 1224,
            "target": 34963
        },
        {
            "buffer": 0,
            "byteLength": 288,
            "byteOffset": 1296,
            "target": 34962,
            "byteStride": 12
        },
        {
            "buffer": 0,
            "byteLength": 288,
            "byteOffset": 1584,
            "target": 34962,
            "byteStride": 12
        },
        {
            "buffer": 0,
            "byteLength": 72,
            "byteOffset": 1872,
            "target": 34963
        }
    ],
    "buffers": [
        {
            "byteLength": 1944,
            "uri": "data:application/octet-stream;base64,"
        }
    ]
} 